<?xml version="1.0" encoding="UTF-8"?>
<!DOCTYPE svg PUBLIC "-//W3C//DTD SVG 1.1//EN" "http://www.w3.org/Graphics/SVG/1.1/DTD/svg11.dtd">
<svg xmlns="http://www.w3.org/2000/svg" version="1.1" width="286px" height="316px" style="shape-rendering:geometricPrecision; text-rendering:geometricPrecision; image-rendering:optimizeQuality; fill-rule:evenodd; clip-rule:evenodd" xmlns:xlink="http://www.w3.org/1999/xlink">
<g><path style="opacity:0.85" fill="#020202" d="M 127.5,10.5 C 196.67,7.32394 246.503,36.6573 277,98.5C 277.059,104.102 274.226,106.602 268.5,106C 231.78,36.9828 175.114,11.3161 98.5,29C 74.6032,36.8695 54.4366,50.3695 38,69.5C 28.8234,80.5161 21.1567,92.5161 15,105.5C 6.4509,108.116 3.11757,105.116 5,96.5C 22.4229,61.4076 48.9229,35.9076 84.5,20C 98.5825,15.1041 112.916,11.9374 127.5,10.5 Z"/></g>
<g><path style="opacity:0.849" fill="#020202" d="M 130.5,45.5 C 180.676,43.4489 217.843,64.1156 242,107.5C 244.11,110.671 244.61,114.004 243.5,117.5C 241.133,119.395 238.466,119.895 235.5,119C 230.03,110.854 224.53,102.688 219,94.5C 189.394,62.0509 153.228,51.5509 110.5,63C 81.6504,72.8504 60.6504,91.5171 47.5,119C 44.5464,120.393 41.5464,120.227 38.5,118.5C 37.6471,115.189 37.8137,111.856 39,108.5C 52.0905,83.0804 71.9238,64.9137 98.5,54C 109.037,50.2009 119.704,47.3676 130.5,45.5 Z"/></g>
<g><path style="opacity:0.842" fill="#010101" d="M 129.5,81.5 C 166.572,78.108 193.405,92.7747 210,125.5C 210.635,131.781 207.801,134.281 201.5,133C 180.888,96.9029 150.888,85.9029 111.5,100C 98.2127,108.453 87.8793,119.62 80.5,133.5C 70.147,133.652 67.647,129.319 73,120.5C 81.927,106.905 93.427,96.0721 107.5,88C 114.825,85.3793 122.159,83.2126 129.5,81.5 Z"/></g>
<g><path style="opacity:0.953" fill="#000000" d="M 137.5,120.5 C 167.096,122.928 180.596,138.928 178,168.5C 169.762,190.07 154.262,198.903 131.5,195C 111.537,188.013 102.371,173.513 104,151.5C 106.322,140.525 112.155,132.025 121.5,126C 126.715,123.429 132.048,121.596 137.5,120.5 Z"/></g>
<g><path style="opacity:0.853" fill="#010101" d="M 76.5,183.5 C 78.1703,183.751 79.6703,184.418 81,185.5C 93.9243,210.229 114.424,222.896 142.5,223.5C 160.917,222.873 176.417,215.873 189,202.5C 193.5,196.667 198,190.833 202.5,185C 207.129,184.667 210.129,186.833 211.5,191.5C 194.583,223.466 167.917,237.966 131.5,235C 103.411,231.384 83.2448,216.884 71,191.5C 70.3333,190.167 70.3333,188.833 71,187.5C 72.8121,186.023 74.6455,184.69 76.5,183.5 Z"/></g>
<g><path style="opacity:0.852" fill="#010101" d="M 41.5,197.5 C 44.0588,197.39 46.3921,198.056 48.5,199.5C 73.3464,245.257 111.68,264.423 163.5,257C 183.087,252.292 199.921,242.792 214,228.5C 221.778,219.11 228.945,209.276 235.5,199C 240.439,197.937 243.106,199.937 243.5,205C 220.268,253.155 181.268,274.821 126.5,270C 89.3455,265.173 61.1788,246.673 42,214.5C 38.8263,209.94 37.8263,204.94 39,199.5C 39.9947,198.934 40.828,198.267 41.5,197.5 Z"/></g>
<g><path style="opacity:0.843" fill="#020202" d="M 7.5,211.5 C 10.5455,211.342 13.3788,212.009 16,213.5C 49.7144,277.939 102.548,303.772 174.5,291C 215.482,280.09 245.315,255.59 264,217.5C 269.446,210.398 273.613,210.898 276.5,219C 257.003,262.159 224.337,289.826 178.5,302C 122.039,314.514 73.2052,300.681 32,260.5C 19.4591,247.254 10.9591,231.754 6.5,214C 6.74325,213.098 7.07658,212.265 7.5,211.5 Z"/></g>
</svg>
